<?xml version="1.0" encoding="UTF-8" standalone="no"?>
<!DOCTYPE svg PUBLIC "-//W3C//DTD SVG 1.1//EN" "http://www.w3.org/Graphics/SVG/1.1/DTD/svg11.dtd">
<svg width="100%" height="100%" viewBox="0 0 482 397" version="1.1" xmlns="http://www.w3.org/2000/svg" xmlns:xlink="http://www.w3.org/1999/xlink" xml:space="preserve" xmlns:serif="http://www.serif.com/" style="fill-rule:evenodd;clip-rule:evenodd;stroke-linejoin:round;stroke-miterlimit:2;">
    <g transform="matrix(1,0,0,1,-279.063036,-319.949105)">
        <g id="Background" transform="matrix(0.969011,0,0,0.969011,274.181428,315.49332)">
            <path d="M5.946,216.487C4.973,203.114 4.492,195.535 6.012,176.491C7.192,163.42 7.248,163.501 9.003,150.457C10.217,142.861 16.315,104.693 33.192,57.386C36.496,48.125 41.771,51.101 51.378,55.737C171.888,113.883 204.118,153.832 218.89,224.452C219.051,225.564 219.03,225.515 221.029,243.515C221.193,253.343 221.404,253.222 220.982,264.505C220.98,264.567 221.051,264.909 221.056,265.904C221.072,266.029 221.076,266.151 221.055,266.266C221.037,268.002 220.835,271.327 219.97,277.529C218.082,299.647 205.467,341.96 197.563,355.539C195.758,357.887 195.911,357.853 194.116,360.221C186.089,370.806 182.349,370.964 179.014,375.53C177.358,367.761 174.357,333.269 160.789,289.412C136.511,210.934 95.311,168.168 93.447,168.127C91.337,168.08 92.951,169.219 95.616,174.442C119.685,221.621 150.445,322.353 154.019,367.531C155.15,381.831 158.495,390.513 147.44,385.634C34.971,336.001 17.136,281.341 6.999,227.47C6.183,220.541 5.997,217.369 5.946,216.487Z" style="fill:rgb(0,94,61);fill-opacity:1;"/>
            <path d="M197.563,355.539C199.787,355.029 201.037,354.742 214.004,332.226C250.23,269.323 262.358,238.671 334.037,139.169C358.483,105.235 359.496,103.676 356.166,99.786C350.586,93.267 313.914,74.272 313.958,66.485C313.999,59.124 321.82,59.266 381.481,39.452C389.054,36.936 484.925,5.974 490.569,4.953C506.827,2.012 501.445,17.805 497.998,35.548C484.78,103.588 468.642,189.145 465.155,194.245C458.559,203.893 450.619,196.122 449.735,195.257C438.107,183.877 418.446,152.459 412.65,155.791C407.643,158.67 359.717,223.769 328.032,279.235C291,344.06 270.169,364.518 263.785,370.787C259.132,375.357 227.836,406.093 194.559,413.835C185.497,415.943 183.058,403.72 182.802,402.435C181.959,398.21 179.465,381.628 179.014,375.53C182.349,370.964 186.089,370.806 194.116,360.221C195.911,357.853 195.758,357.887 197.563,355.539Z" style="fill:rgb(43,179,124);fill-opacity:1;"/>
        </g>
    </g>
</svg>
