<?xml version="1.0" encoding="UTF-8" standalone="no"?>
<!DOCTYPE svg PUBLIC "-//W3C//DTD SVG 1.1//EN" "http://www.w3.org/Graphics/SVG/1.1/DTD/svg11.dtd">
<svg width="100%" height="100%" viewBox="0 0 844 279" version="1.1" xmlns="http://www.w3.org/2000/svg" xmlns:xlink="http://www.w3.org/1999/xlink" xml:space="preserve" xmlns:serif="http://www.serif.com/" style="fill-rule:evenodd;clip-rule:evenodd;stroke-linejoin:round;stroke-miterlimit:2;">
    <g transform="matrix(1,0,0,1,-17.110942,-19.720503)">
        <g id="Background" transform="matrix(1,0,0,1,13.553383,17.391176)">
            <g transform="matrix(1,0,0,1,1.362938,45.942157)">
                <path d="M44.007,180.952C70.873,211.369 123.594,197.733 125.353,155.493C125.841,143.787 124.444,143.291 123.663,143.821C122.817,144.395 95.525,175.541 49.585,158.296C-21.119,131.757 -12.893,6.602 75.505,2.612C110.412,1.036 126.545,24.211 126.002,14.513C125.888,12.477 123.902,5.848 128.507,5.62C162.921,3.911 163.832,5.697 164.225,8.537C164.588,11.161 166.557,143.216 162.67,169.525C151.581,244.563 43.416,248.712 11.894,199.225C7.028,191.585 11.612,190.905 30.197,179.03C38.493,173.73 39.259,176.58 44.007,180.952L112.978,49.026C100.486,37.437 83.227,38.319 80.499,38.458C30.84,40.997 30.687,117.918 73.582,126.046C123.545,135.514 141.736,80.192 112.978,49.026L44.007,180.952Z" style="fill:rgb(0,94,61);fill-opacity:0.98;"/>
            </g>
            <path d="M269.552,48.935L273.508,48.86C276.985,48.843 284.342,47.594 284.287,51.501C283.787,87.051 284.512,88.827 281.517,88.837C262.293,88.9 261.215,86.281 245.32,96.242C232.877,107.878 231.656,118.957 231.72,131.513C231.743,132.507 231.767,133.5 231.791,134.494L231.812,135.487L231.762,136.501C231.751,138.498 231.74,140.496 231.729,142.494L231.758,143.502L232.087,144.55C231.594,149.279 231.162,191.826 232.121,206.495C231.866,207.757 231.61,209.019 231.355,210.281C229.204,210.617 229.222,210.47 218.5,210.505C194.149,210.582 194.163,210.597 193.486,210.566C191.456,210.475 192.168,204.132 192.156,193.502C192.145,182.299 192.012,56.783 192.123,53.458C192.224,50.443 199.024,51.529 219.499,51.55C228.02,51.333 228.805,50.737 230.12,53.574C230.158,55.886 230.195,58.197 230.233,60.509L230.25,64.504C230.25,71.067 230.207,71.027 230.25,71.592C230.603,76.178 232.118,71.393 234.722,67.665C244.716,51.167 266.401,49.219 269.552,48.935Z" style="fill:rgb(0,94,61);fill-opacity:0.98;"/>
            <g transform="matrix(1,0,0,1,283.362938,45.942157)">
                <path d="M145.034,24.997C194.874,75.121 165.415,169.459 87.51,168.799C0.016,168.057 -19.383,73.067 26.642,25.638C43.641,8.121 65.682,4.835 69.469,4.271C100.991,-0.429 123.846,6.181 145.034,24.997L124.781,61.39C98.532,16.232 32.703,39.662 43.908,98.415C47.082,115.058 62.013,126.084 64.314,127.784C70.876,130.919 86.994,139.199 108.859,127.981C108.8,127.785 108.123,125.522 108.123,125.522C107.742,122.798 109.325,124.811 111.773,125.973C113.912,124.298 141.469,106.752 125.942,63.213C124.339,65.18 124.374,65.887 122,65.078C122.204,64.77 122.212,64.918 124.781,61.39L145.034,24.997L124.781,61.39C122.212,64.918 122.204,64.77 122,65.078C124.374,65.887 124.339,65.18 125.942,63.213C125.422,62.219 125.513,62.276 124.781,61.39L145.034,24.997L111.773,125.973C109.325,124.811 107.742,122.798 108.123,125.522C108.123,125.522 108.8,127.785 108.859,127.981C110.559,127.257 110.446,127.271 111.773,125.973L145.034,24.997Z" style="fill:rgb(0,94,61);fill-opacity:0.98;"/>
            </g>
            <path d="M528.576,50.838C556.405,46.099 571.948,48.546 589.499,56.501C597.411,60.913 597.497,60.654 604.499,66.502C611.356,71.98 616.276,79.661 617.57,81.451L620.323,85.603C620.525,85.936 620.497,85.913 621.705,88.392C625.259,96.069 625.763,95.957 625.45,97.481C625.123,99.075 608.434,104.157 605.614,104.897C592.138,109.613 590.495,111.407 588.518,107.491C588.187,106.822 587.857,106.154 587.527,105.485C584.656,101.28 585.163,101.005 581.851,97.228C574.998,89.404 571.2,88.321 566.57,86.286C565.878,86.031 565.185,85.775 564.492,85.52C560.93,84.942 561.06,84.54 557.528,84.106C546.667,83.439 544.986,84.087 544.447,84.156C541.527,84.754 511.961,88.235 508.006,124.477C507.705,127.237 505.742,145.224 514.321,158.599C528.186,180.213 543.854,179.225 555.484,179.066C556.498,178.969 557.512,178.873 558.525,178.776C565.454,177.377 572.148,176.099 582.015,165.098C585.35,160.659 585.295,160.677 587.809,155.664C589.971,151.355 591.643,152.559 608.448,157.674C610.228,157.9 619.748,160.572 623.37,161.938C623.972,162.217 624.574,162.496 625.176,162.776C625.895,167.497 617.159,184.503 605.285,195.269C600.839,199.3 591.007,205.947 590.29,206.095C586.498,206.878 571.245,216.871 541.518,214.174L537.561,214.132C522.734,210.87 501.177,207.313 480.952,179.223C478.78,175.295 478.813,175.354 476.651,171.424C473.059,165.161 473.87,164.868 471.555,157.482L470.775,154.424C470.648,153.792 470.351,153.202 470.224,152.569C463.08,116.829 474.297,86.769 493.652,69.666C501.437,62.37 511.613,54.807 528.576,50.838Z" style="fill:rgb(0,94,61);fill-opacity:0.98;"/>
            <path d="M842.5,2.329C850.5,2.712 846.308,6.805 845.676,13.518C845.125,14.955 844.969,14.874 845.148,16.371C841.251,28.401 842.731,29.634 837.166,50.404C836.376,53.351 836.84,53.392 828.866,87.632C828.758,88.1 827.84,92.039 827.655,93.512C827.125,94.926 826.976,94.833 827.112,96.337C826.255,99.916 826.282,99.862 825.534,103.516C822.001,104.127 822.09,104.258 818.497,104.503C818.078,103.959 818.157,103.968 813.868,97.265C813.161,96.107 809.295,89.779 805.381,82.591C805.015,82.094 802.685,73.896 800.621,80.568C800.27,81.7 800.313,81.65 799.622,82.596C796.948,86.496 785.837,106.591 782.621,111.582C782.098,112.474 781.575,113.365 781.052,114.257C777.603,120.94 731.301,201.816 727.614,207.57C725.98,203.617 710.527,166.241 708.359,157.688C712.393,154.754 710.767,153.602 713.508,149.506C714.896,147.283 725.694,129.986 730.486,121.492C732.145,118.401 748.213,91.255 749.517,89.512C750.828,87.368 750.731,87.393 751.993,84.996C752.208,84.705 763.364,66.436 763.379,66.417C764.277,65.254 763.425,64.755 772.841,50.665C774.82,47.703 770.001,47.027 757.695,39.163C750.977,34.869 747.25,35.583 748.612,29.542C749.697,28.573 749.624,28.648 750.499,27.497C755.974,24.55 810.719,9.97 812.634,8.861C812.694,8.826 816.324,7.958 816.646,7.881C818.153,7.997 818.066,7.856 819.494,7.379C820.213,7.215 820.931,7.052 821.65,6.888C823.149,7.053 823.1,6.875 824.393,6.207C825.885,5.287 825.853,5.426 827.559,4.961C829.622,5.258 830.005,6.014 831.551,3.929C831.902,3.873 832.252,3.817 832.603,3.761C834.128,4.135 834.079,3.91 835.486,3.245L838.46,3.25C840.656,3.302 840.669,3.454 842.5,2.329Z" style="fill:rgb(43,179,124);fill-opacity:0.98;"/>
            <path d="M667.455,51.572C668.825,53.847 668.726,53.862 679.593,82.464C691.24,113.039 691.244,112.989 691.732,114.416L693.062,117.656C693.427,118.599 696.627,126.85 697.706,129.417C698.155,130.628 701.57,139.827 703.478,144.508C704.449,147.036 704.418,146.931 705.382,149.558C706.82,153.726 706.742,153.659 708.359,157.688C710.527,166.241 725.98,203.617 727.614,207.57C725.963,212.529 724.424,211.794 722.015,219.28C721.643,220.438 720.993,220.084 714.802,232.66C708.264,245.941 709.314,246.495 702.104,256.164C688.753,271.64 676.738,284.543 634.429,279.946C631.346,279.611 633.257,274.855 633.765,271.574C634.01,269.8 635.434,259.503 637.786,249.56C638.001,248.909 637.503,246.012 641.521,246.347C646.865,246.794 646.773,246.412 653.576,245.969C668.176,242.884 673.035,233.238 679.625,218.556C680.996,215.486 680.796,215.478 682.24,212.39C682.315,212.231 684.19,207.31 684.609,206.533C684.612,206.496 685.279,206.473 684.634,203.46C684.42,203.092 679.985,191.198 679.497,190.501C678.171,188.604 678.573,188.5 677.829,186.373C677.429,185.333 674.359,177.334 672.631,173.446C670.43,168.475 663.466,150.455 658.647,138.439L656.712,133.414L655.861,131.376C651.848,122.182 648.868,114.089 648.308,112.567L647.864,111.372C644.178,102.378 644.122,102.478 640.502,93.499C640.256,92.856 640.217,92.931 639.99,92.339C639.935,92.197 639.941,92.207 639.335,90.562C636.434,83.471 636.393,83.554 633.533,76.486C629.075,65.429 629.056,65.548 624.726,54.418C623.683,49.095 627.733,51.773 667.455,51.572Z" style="fill:rgb(0,94,61);fill-opacity:0.99;"/>
        </g>
    </g>
</svg>
